# xmcd
#
# Track frame offsets: 
#        182
#        11952
#        22495
#        34435
#        44557
#        55665
#        68230
#        79547
#        91637
#        102942
#        109782
#        119812
#        130197
#        140312
#        149997
#        160927
#
# Disc length: 2260 seconds
#
# Revision: 1
# Processed by: cddbd v1.5.2PL0 Copyright (c) Steve Scherf et al.
# Submitted via: ExactAudioCopy v0.99pb4
#
DISCID=ee08d210
DTITLE=Johnny Cash - Home Of The Blues
DYEAR=1987
DGENRE=Country
TTITLE0=The Port Of Lonely Hearts
TTITLE1=My Treasure
TTITLE2=So Doggone Lonesome
TTITLE3=Goodbye Little Darling
TTITLE4=I Love You Because
TTITLE5=Next In Line
TTITLE6=Don't Make Me Go
TTITLE7=Home Of The Blues
TTITLE8=Belshazar
TTITLE9=Leave That Funk Alone
TTITLE10=The Story Of A Broken Heart
TTITLE11=You Win Again
TTITLE12=I Could Never Be Ashamed From You
TTITLE13=It's Just About Time
TTITLE14=I Just Thought You'd Like To Know
TTITLE15=I Forgot To Remember To Forget
EXTD=(c)1987 Charly Holdings Ltd\nUPC 082333071827
EXTT0=
EXTT1=
EXTT2=
EXTT3=
EXTT4=
EXTT5=
EXTT6=
EXTT7=
EXTT8=
EXTT9=
EXTT10=
EXTT11=
EXTT12=
EXTT13=
EXTT14=
EXTT15=
PLAYORDER=
